<svg width="32" height="32" viewBox="0 0 32 32" fill="none" xmlns="http://www.w3.org/2000/svg">
<path fill-rule="evenodd" clip-rule="evenodd" d="M16 32C24.8366 32 32 24.8366 32 16C32 7.16344 24.8366 0 16 0C7.16344 0 0 7.16344 0 16C0 24.8366 7.16344 32 16 32ZM8.61631 6.49741C8.12909 6.89938 8.39088 8.18618 8.39088 8.18618C9.12776 14.7717 13.7563 22.7027 19.0075 26.6162C19.0075 26.6162 19.9694 27.5579 20.5794 27.2649C21.1704 27.043 22.955 25.771 23.5377 25.0136C24.1013 24.3273 24.3247 23.7786 23.5481 22.4304C22.8414 21.1009 21.3889 19.7243 21.0023 19.4686C20.6866 19.2319 19.8446 19.539 19.8446 19.539L17.3004 20.5318C17.3004 20.5318 16.9974 20.527 16.5071 20.0912C15.1638 18.5915 13.403 15.5349 12.8497 13.6379C12.6474 12.9755 12.7947 12.7101 12.7947 12.7101L14.9247 10.9982C14.9247 10.9982 15.592 10.492 15.5644 10.0286C15.5889 9.65425 15.0547 7.68624 14.278 6.338C13.4823 5.06082 12.8965 4.98041 12.0217 5.12644C11.1468 5.27246 9.1745 6.11438 8.61631 6.49741Z" fill="white"/>
</svg>
